# xmcd CD database file
#
# Track frame offsets:
#	150
#	41067
#	66019
#	101215
#	120963
#	147594
#	168998
#	185455
#	228423
#	267708
#	289825
#	296715
#
# Disc length: 4294 seconds
#
# Revision: 0
# Processed by: cddbd v1.5.1PL0 Copyright (c) Steve Scherf et al.
# Submitted via: CDex 1.51
#
DISCID=be10c40c
DTITLE=Eumir Deodato - Deodato!
DYEAR=1900
DGENRE=Jazz
TTITLE0=Also sprach Zarathustra
TTITLE1=Do it again
TTITLE2=Moonlight Serenade
TTITLE3=Latin flute
TTITLE4=West 42nd Street
TTITLE5=Havana Strut
TTITLE6=Adam´s Hotel
TTITLE7=Super Strut
TTITLE8=Rhapsody in Blue
TTITLE9=Peter Gunn
TTITLE10=Speak Low
TTITLE11=Artistry
EXTD=
EXTT0=
EXTT1=
EXTT2=
EXTT3=
EXTT4=
EXTT5=
EXTT6=
EXTT7=
EXTT8=
EXTT9=
EXTT10=
EXTT11=
PLAYORDER=
